<svg width="667" height="667" viewBox="0 0 667 667" fill="none" xmlns="http://www.w3.org/2000/svg">
<g clip-path="url(#clip0_8:5)">
<g opacity="0.699997">
<g opacity="0.699997">
<path opacity="0.699997" d="M90.5749 222.781C90.5749 222.781 53.4056 318.764 105.638 415.452C157.868 512.141 265.476 563.188 351.596 606.851C437.716 650.512 527.144 629.249 569.642 557.733C612.138 486.217 553.848 435.161 553.779 333.175C553.711 231.188 569.042 204.187 513.828 118.023C458.615 31.8599 323.083 12.7892 220.63 76.6945C118.174 140.6 90.5749 222.781 90.5749 222.781Z" fill="white"/>
</g>
</g>
<path d="M127.813 116.986C128.061 116.76 128.31 116.535 128.559 116.31C197.318 54.3964 288.646 51.6057 355.177 118.252C389.854 152.988 451.427 146.342 495.479 158.906C647.371 202.226 621.11 408.312 546.081 507.934C478.374 597.832 331.671 618.142 233.106 573.91C146.494 535.042 85.5085 448.21 63.8045 357.418C61.6272 348.314 59.8379 339.116 58.4699 329.855C47.0525 252.566 68.9819 170.483 127.813 116.986Z" fill="#EEEEEE"/>
<g opacity="0.300003">
<g opacity="0.300003">
<g opacity="0.300003">
<g opacity="0.699997">
<g opacity="0.699997">
<path opacity="0.699997" d="M429.293 533.987L248.253 580.054C243.093 578.174 238.04 576.12 233.106 573.906C210.293 563.667 189.266 550.107 170.253 534.014C170.24 534.014 170.24 534.014 170.226 533.987H429.293Z" fill="black"/>
</g>
</g>
</g>
</g>
</g>
<path d="M268.493 479.201V483.346C268.493 484.481 267.573 485.399 266.44 485.399H185.827C181.76 485.399 178.8 481.547 179.853 477.614L189.267 442.267L202.373 393.04H243.36L244.773 415.119L246.627 443.786L248.16 467.693C248.493 473.013 252.907 477.147 258.227 477.147H266.44C267.573 477.147 268.493 478.066 268.493 479.201Z" fill="#0C66FF"/>
<g opacity="0.300003">
<g opacity="0.300003">
<g opacity="0.300003">
<g opacity="0.699997">
<g opacity="0.699997">
<path opacity="0.699997" d="M246.627 443.786C227.84 445.6 209.654 444.6 195.867 443.066C193.534 442.826 191.334 442.546 189.267 442.266L202.374 393.04H243.36L244.774 415.12L246.627 443.786Z" fill="black"/>
</g>
</g>
</g>
</g>
</g>
<path d="M268.493 479.201V483.346C268.493 484.481 267.573 485.399 266.44 485.399H185.827C181.76 485.399 178.8 481.547 179.853 477.614L189.267 442.267L202.373 393.04H243.36L244.773 415.119L246.627 443.786L248.16 467.693C248.493 473.013 252.907 477.147 258.227 477.147H266.44C267.573 477.147 268.493 478.066 268.493 479.201Z" stroke="#1A2E35" stroke-width="1.33333" stroke-miterlimit="10" stroke-linecap="round" stroke-linejoin="round"/>
<path d="M407.001 410.221C407.001 415.228 403.099 419.363 398.1 419.645C368.6 421.317 273.891 426.523 238.441 426.523C202.991 426.523 108.281 421.317 78.7814 419.645C73.7827 419.363 69.8813 415.228 69.8813 410.221V179.76C69.8813 174.547 74.108 170.32 79.3214 170.32H397.56C402.775 170.32 407.001 174.547 407.001 179.76V410.221Z" fill="#0C56D2"/>
<path d="M411.925 410.221C411.925 415.228 408.022 419.363 403.025 419.645C373.523 421.317 278.814 426.523 243.365 426.523C207.915 426.523 113.206 421.317 83.7045 419.645C78.7059 419.363 74.8045 415.228 74.8045 410.221V179.76C74.8045 174.547 79.0312 170.32 84.2445 170.32H402.485C407.698 170.32 411.925 174.547 411.925 179.76V410.221Z" fill="#0C66FF"/>
<path d="M411.925 410.221C411.925 415.228 408.022 419.363 403.025 419.645C373.523 421.317 278.814 426.523 243.365 426.523C207.915 426.523 113.206 421.317 83.7045 419.645C78.7059 419.363 74.8045 415.228 74.8045 410.221V179.76C74.8045 174.547 79.0312 170.32 84.2445 170.32H402.485C407.698 170.32 411.925 174.547 411.925 179.76V410.221Z" stroke="#1A2E35" stroke-width="1.33333" stroke-miterlimit="10" stroke-linecap="round" stroke-linejoin="round"/>
<path d="M403.029 407.32H83.6987V178.751H403.029V407.32Z" fill="#1A2E35" stroke="#1A2E35" stroke-width="1.33333" stroke-miterlimit="10" stroke-linecap="round" stroke-linejoin="round"/>
<g opacity="0.199997">
<path opacity="0.199997" d="M403.029 407.32H83.6987V178.751H403.029V407.32Z" fill="white"/>
</g>
<path d="M403.029 203.94H83.6987V178.751H403.029V203.94Z" fill="white" stroke="#1A2E35" stroke-width="1.33333" stroke-miterlimit="10" stroke-linecap="round" stroke-linejoin="round"/>
<path d="M83.7 407.32H118.696V203.939H83.7V407.32Z" fill="#C0C0C0" stroke="#1A2E35" stroke-width="1.33333" stroke-miterlimit="10"/>
<path d="M248.764 203.939V407.321" stroke="white" stroke-width="1.33333" stroke-miterlimit="10" stroke-linecap="round" stroke-linejoin="round"/>
<path d="M118.696 293.117H403.029" stroke="white" stroke-width="1.33333" stroke-miterlimit="10" stroke-linecap="round" stroke-linejoin="round"/>
<path d="M399.113 186.683C399.113 188.614 397.549 190.178 395.619 190.178C393.689 190.178 392.125 188.614 392.125 186.683C392.125 184.754 393.689 183.188 395.619 183.188C397.549 183.188 399.113 184.754 399.113 186.683Z" fill="#C0C0C0"/>
<path d="M399.113 186.683C399.113 188.614 397.549 190.178 395.619 190.178C393.689 190.178 392.125 188.614 392.125 186.683C392.125 184.754 393.689 183.188 395.619 183.188C397.549 183.188 399.113 184.754 399.113 186.683Z" stroke="#1A2E35" stroke-width="1.33333" stroke-miterlimit="10"/>
<path d="M385.642 186.683C385.642 188.614 384.077 190.178 382.147 190.178C380.217 190.178 378.653 188.614 378.653 186.683C378.653 184.754 380.217 183.188 382.147 183.188C384.077 183.188 385.642 184.754 385.642 186.683Z" fill="#C0C0C0"/>
<path d="M385.642 186.683C385.642 188.614 384.077 190.178 382.147 190.178C380.217 190.178 378.653 188.614 378.653 186.683C378.653 184.754 380.217 183.188 382.147 183.188C384.077 183.188 385.642 184.754 385.642 186.683Z" stroke="#1A2E35" stroke-width="1.33333" stroke-miterlimit="10"/>
<path d="M372.169 186.683C372.169 188.614 370.604 190.178 368.675 190.178C366.745 190.178 365.18 188.614 365.18 186.683C365.18 184.754 366.745 183.188 368.675 183.188C370.604 183.188 372.169 184.754 372.169 186.683Z" fill="#C0C0C0"/>
<path d="M372.169 186.683C372.169 188.614 370.604 190.178 368.675 190.178C366.745 190.178 365.18 188.614 365.18 186.683C365.18 184.754 366.745 183.188 368.675 183.188C370.604 183.188 372.169 184.754 372.169 186.683Z" stroke="#1A2E35" stroke-width="1.33333" stroke-miterlimit="10"/>
<path d="M112.979 222.267H89.4187V212.763H112.979V222.267Z" fill="white" stroke="#1A2E35" stroke-width="1.33333" stroke-miterlimit="10" stroke-linecap="round" stroke-linejoin="round"/>
<path d="M112.979 234.621H89.4187V225.117H112.979V234.621Z" fill="white" stroke="#1A2E35" stroke-width="1.33333" stroke-miterlimit="10" stroke-linecap="round" stroke-linejoin="round"/>
<path d="M112.979 246.977H89.4187V237.473H112.979V246.977Z" fill="white" stroke="#1A2E35" stroke-width="1.33333" stroke-miterlimit="10" stroke-linecap="round" stroke-linejoin="round"/>
<path d="M112.979 259.333H89.4187V249.829H112.979V259.333Z" fill="white" stroke="#1A2E35" stroke-width="1.33333" stroke-miterlimit="10" stroke-linecap="round" stroke-linejoin="round"/>
<path d="M112.979 282.388H89.4187V272.884H112.979V282.388Z" fill="white" stroke="#1A2E35" stroke-width="1.33333" stroke-miterlimit="10" stroke-linecap="round" stroke-linejoin="round"/>
<path d="M112.979 294.344H89.4187V284.84H112.979V294.344Z" fill="white" stroke="#1A2E35" stroke-width="1.33333" stroke-miterlimit="10" stroke-linecap="round" stroke-linejoin="round"/>
<path d="M112.979 306.3H89.4187V296.796H112.979V306.3Z" fill="white" stroke="#1A2E35" stroke-width="1.33333" stroke-miterlimit="10" stroke-linecap="round" stroke-linejoin="round"/>
<path d="M112.979 318.256H89.4187V308.752H112.979V318.256Z" fill="white" stroke="#1A2E35" stroke-width="1.33333" stroke-miterlimit="10" stroke-linecap="round" stroke-linejoin="round"/>
<path d="M112.979 330.212H89.4187V320.708H112.979V330.212Z" fill="white" stroke="#1A2E35" stroke-width="1.33333" stroke-miterlimit="10" stroke-linecap="round" stroke-linejoin="round"/>
<path d="M98.9213 353.311H89.4173V343.807H98.9213V353.311Z" fill="white" stroke="#1A2E35" stroke-width="1.33333" stroke-miterlimit="10" stroke-linecap="round" stroke-linejoin="round"/>
<path d="M112.979 353.311H103.475V343.807H112.979V353.311Z" fill="white" stroke="#1A2E35" stroke-width="1.33333" stroke-miterlimit="10" stroke-linecap="round" stroke-linejoin="round"/>
<path d="M98.9213 367.487H89.4173V357.983H98.9213V367.487Z" fill="white" stroke="#1A2E35" stroke-width="1.33333" stroke-miterlimit="10" stroke-linecap="round" stroke-linejoin="round"/>
<path d="M112.979 367.487H103.475V357.983H112.979V367.487Z" fill="white" stroke="#1A2E35" stroke-width="1.33333" stroke-miterlimit="10" stroke-linecap="round" stroke-linejoin="round"/>
<path d="M83.6999 266.564H118.696" stroke="#1A2E35" stroke-width="1.33333" stroke-miterlimit="10" stroke-linecap="round" stroke-linejoin="round"/>
<path d="M83.6999 337.598H118.696" stroke="#1A2E35" stroke-width="1.33333" stroke-miterlimit="10" stroke-linecap="round" stroke-linejoin="round"/>
<path d="M313.861 189.364H351.488V184.001H313.861V189.364Z" fill="#C0C0C0" stroke="#1A2E35" stroke-width="1.33333" stroke-miterlimit="10"/>
<path d="M96.8933 190.421H89.4173V182.945H96.8933V190.421Z" fill="#C0C0C0" stroke="#1A2E35" stroke-width="1.33333" stroke-miterlimit="10"/>
<path d="M213.489 247.784C213.489 265.165 199.398 279.256 182.017 279.256C164.634 279.256 150.545 265.165 150.545 247.784C150.545 230.401 164.634 216.312 182.017 216.312C199.398 216.312 213.489 230.401 213.489 247.784Z" fill="#0C66FF"/>
<g opacity="0.5">
<g opacity="0.5">
<path opacity="0.5" d="M192.156 240.165C192.156 250.393 183.864 258.685 173.636 258.685C163.408 258.685 155.116 250.393 155.116 240.165C155.116 229.937 163.408 221.645 173.636 221.645C183.864 221.645 192.156 229.937 192.156 240.165Z" fill="#0C66FF"/>
</g>
</g>
<path d="M403.029 399.311H83.6987V407.32H403.029V399.311Z" fill="white" stroke="#1A2E35" stroke-width="1.33333" stroke-miterlimit="10" stroke-linecap="round" stroke-linejoin="round"/>
<path d="M388.761 399.311H403.029V203.939H388.761V399.311Z" fill="#C0C0C0" stroke="#1A2E35" stroke-width="1.33333" stroke-miterlimit="10"/>
<path d="M388.762 225.118H403.03" stroke="#1A2E35" stroke-width="1.33333" stroke-miterlimit="10" stroke-linecap="round" stroke-linejoin="round"/>
<path d="M388.762 269.025H403.03" stroke="#1A2E35" stroke-width="1.33333" stroke-miterlimit="10" stroke-linecap="round" stroke-linejoin="round"/>
<path d="M388.762 312.934H403.03" stroke="#1A2E35" stroke-width="1.33333" stroke-miterlimit="10" stroke-linecap="round" stroke-linejoin="round"/>
<path d="M348.652 247.784C348.652 265.165 334.562 279.256 317.18 279.256C299.799 279.256 285.708 265.165 285.708 247.784C285.708 230.401 299.799 216.312 317.18 216.312C334.562 216.312 348.652 230.401 348.652 247.784Z" stroke="white" stroke-width="1.33333" stroke-miterlimit="10"/>
<path d="M285.708 247.784H348.652" stroke="white" stroke-width="1.33333" stroke-miterlimit="10"/>
<path d="M317.18 216.311V279.257" stroke="white" stroke-width="1.33333" stroke-miterlimit="10"/>
<path d="M294.926 225.529L339.435 270.039" stroke="white" stroke-width="1.33333" stroke-miterlimit="10"/>
<path d="M339.435 225.529L294.926 270.039" stroke="white" stroke-width="1.33333" stroke-miterlimit="10"/>
<path d="M288.118 235.704L346.242 259.863" stroke="white" stroke-width="1.33333" stroke-miterlimit="10"/>
<path d="M329.26 218.721L305.101 276.845" stroke="white" stroke-width="1.33333" stroke-miterlimit="10"/>
<path d="M305.172 218.692L329.189 276.875" stroke="white" stroke-width="1.33333" stroke-miterlimit="10"/>
<path d="M346.272 235.775L288.089 259.792" stroke="white" stroke-width="1.33333" stroke-miterlimit="10"/>
<path d="M338.318 247.784C338.318 259.457 328.854 268.921 317.18 268.921C305.507 268.921 296.043 259.457 296.043 247.784C296.043 236.111 305.507 226.647 317.18 226.647C328.854 226.647 338.318 236.111 338.318 247.784Z" stroke="white" stroke-width="1.33333" stroke-miterlimit="10"/>
<path d="M326.833 247.784C326.833 253.115 322.511 257.436 317.181 257.436C311.85 257.436 307.527 253.115 307.527 247.784C307.527 242.453 311.85 238.132 317.181 238.132C322.511 238.132 326.833 242.453 326.833 247.784Z" stroke="white" stroke-width="1.33333" stroke-miterlimit="10"/>
<path d="M213.489 347.314C213.489 329.933 199.398 315.842 182.017 315.842C164.634 315.842 150.545 329.933 150.545 347.314C150.545 364.695 164.634 378.786 182.017 378.786C199.398 378.786 213.489 364.695 213.489 347.314Z" stroke="white" stroke-width="1.33333" stroke-miterlimit="10" stroke-linecap="round" stroke-linejoin="round"/>
<path d="M150.544 347.314H213.488" stroke="white" stroke-width="1.33333" stroke-miterlimit="10" stroke-linecap="round" stroke-linejoin="round"/>
<path d="M182.017 315.841V378.786" stroke="white" stroke-width="1.33333" stroke-miterlimit="10" stroke-linecap="round" stroke-linejoin="round"/>
<path d="M192.697 347.314C192.697 364.695 187.916 378.786 182.017 378.786C176.117 378.786 171.336 364.695 171.336 347.314C171.336 329.933 176.117 315.842 182.017 315.842C187.916 315.842 192.697 329.933 192.697 347.314Z" stroke="white" stroke-width="1.33333" stroke-miterlimit="10" stroke-linecap="round" stroke-linejoin="round"/>
<path d="M202.377 347.314C202.377 364.695 193.261 378.786 182.017 378.786C170.772 378.786 161.657 364.695 161.657 347.314C161.657 329.933 170.772 315.842 182.017 315.842C193.261 315.842 202.377 329.933 202.377 347.314Z" stroke="white" stroke-width="1.33333" stroke-miterlimit="10" stroke-linecap="round" stroke-linejoin="round"/>
<path d="M210.365 347.314C210.365 364.695 197.673 378.786 182.017 378.786C166.36 378.786 153.668 364.695 153.668 347.314C153.668 329.933 166.36 315.842 182.017 315.842C197.673 315.842 210.365 329.933 210.365 347.314Z" stroke="white" stroke-width="1.33333" stroke-miterlimit="10" stroke-linecap="round" stroke-linejoin="round"/>
<path d="M154.046 332.879H209.982" stroke="white" stroke-width="1.33333" stroke-miterlimit="10" stroke-linecap="round" stroke-linejoin="round"/>
<path d="M165.21 320.708H198.822" stroke="white" stroke-width="1.33333" stroke-miterlimit="10" stroke-linecap="round" stroke-linejoin="round"/>
<path d="M154.046 361.749H209.982" stroke="white" stroke-width="1.33333" stroke-miterlimit="10" stroke-linecap="round" stroke-linejoin="round"/>
<path d="M165.21 373.919H198.822" stroke="white" stroke-width="1.33333" stroke-miterlimit="10" stroke-linecap="round" stroke-linejoin="round"/>
<path d="M348.652 347.314C348.652 364.695 334.562 378.786 317.18 378.786C299.799 378.786 285.708 364.695 285.708 347.314C285.708 329.933 299.799 315.842 317.18 315.842C334.562 315.842 348.652 329.933 348.652 347.314Z" stroke="white" stroke-width="1.33333" stroke-miterlimit="10"/>
<path d="M328.339 347.314C328.339 364.695 323.343 378.786 317.18 378.786C311.019 378.786 306.023 364.695 306.023 347.314C306.023 329.933 311.019 315.842 317.18 315.842C323.343 315.842 328.339 329.933 328.339 347.314Z" stroke="white" stroke-width="1.33333" stroke-miterlimit="10"/>
<path d="M317.18 358.471C299.799 358.471 285.708 353.477 285.708 347.314C285.708 341.151 299.799 336.157 317.18 336.157C334.562 336.157 348.652 341.151 348.652 347.314C348.652 353.477 334.562 358.471 317.18 358.471Z" stroke="white" stroke-width="1.33333" stroke-miterlimit="10"/>
<path d="M306.746 358.471L328.338 336.881" stroke="white" stroke-width="1.33333" stroke-miterlimit="10"/>
<path d="M285.708 347.314H348.652" stroke="white" stroke-width="1.33333" stroke-miterlimit="10"/>
<path d="M317.18 315.841V378.786" stroke="white" stroke-width="1.33333" stroke-miterlimit="10"/>
<path d="M139.736 485.397H454.511C349.544 485.341 244.478 485.337 139.736 485.38V485.397Z" fill="white"/>
<path d="M139.736 485.397H454.511C349.544 485.341 244.478 485.337 139.736 485.38V485.397Z" stroke="#1A2E35" stroke-width="1.33333" stroke-miterlimit="10" stroke-linecap="round" stroke-linejoin="round"/>
<path d="M135.516 485.381C123.408 485.387 111.286 485.391 99.1869 485.397H135.516V485.381Z" fill="white"/>
<path d="M135.516 485.381C123.408 485.387 111.286 485.391 99.1869 485.397H135.516V485.381Z" stroke="#1A2E35" stroke-width="1.33333" stroke-miterlimit="10" stroke-linecap="round" stroke-linejoin="round"/>
<path d="M80.0149 485.397H89.6123Z" fill="white"/>
<path d="M80.0149 485.397H89.6123" stroke="#1A2E35" stroke-width="1.33333" stroke-miterlimit="10" stroke-linecap="round" stroke-linejoin="round"/>
<path d="M169.861 505.439H251.267V488.805L170.055 489.86L169.861 505.439Z" fill="#1A2E35"/>
<path d="M169.861 505.439H251.267V488.805L170.055 489.86L169.861 505.439Z" stroke="#1A2E35" stroke-width="1.33333" stroke-miterlimit="10" stroke-linecap="round" stroke-linejoin="round"/>
<path d="M406.694 505.439H228.429L174.433 492.323L170.055 482.795H323.374L406.694 499.535V505.439Z" fill="#0C66FF"/>
<path d="M406.694 505.439H228.429L174.433 492.323L170.055 482.795H323.374L406.694 499.535V505.439Z" stroke="#1A2E35" stroke-width="1.33333" stroke-miterlimit="10" stroke-linecap="round" stroke-linejoin="round"/>
<path d="M257.07 499.535H406.694L323.375 482.794H170.055L228.43 499.535H250.036" fill="#0C66FF"/>
<path d="M257.07 499.535H406.694L323.375 482.794H170.055L228.43 499.535H250.036" stroke="#1A2E35" stroke-width="1.33333" stroke-miterlimit="10" stroke-linecap="round" stroke-linejoin="round"/>
<path d="M228.429 503.224V505.439" stroke="#1A2E35" stroke-width="1.33333" stroke-miterlimit="10" stroke-linecap="round" stroke-linejoin="round"/>
<path d="M176.503 489.71C176.867 491.064 177.07 492.554 177.07 494.116C177.07 500.37 173.842 505.439 169.861 505.439C165.879 505.439 162.651 500.37 162.651 494.116C162.651 487.863 165.879 482.794 169.861 482.794C172.062 482.794 174.033 484.344 175.355 486.786" fill="#0C66FF"/>
<path d="M176.503 489.71C176.867 491.064 177.07 492.554 177.07 494.116C177.07 500.37 173.842 505.439 169.861 505.439C165.879 505.439 162.651 500.37 162.651 494.116C162.651 487.863 165.879 482.794 169.861 482.794C172.062 482.794 174.033 484.344 175.355 486.786" stroke="#1A2E35" stroke-width="1.33333" stroke-miterlimit="10" stroke-linecap="round" stroke-linejoin="round"/>
<path d="M139.249 518.044C241.333 518.667 345.333 518.667 448.542 518.044Z" fill="white"/>
<path d="M139.249 518.044C241.333 518.667 345.333 518.667 448.542 518.044" stroke="#1A2E35" stroke-width="1.33333" stroke-miterlimit="10" stroke-linecap="round" stroke-linejoin="round"/>
<path d="M114.505 518.044C120 518.667 124 518.667 129.633 518.044Z" fill="white"/>
<path d="M114.505 518.044C120 518.667 124 518.667 129.633 518.044" stroke="#1A2E35" stroke-width="1.33333" stroke-miterlimit="10" stroke-linecap="round" stroke-linejoin="round"/>
<path d="M262.919 533.992C324.001 533.333 384.001 533.333 445.026 533.992Z" fill="white"/>
<path d="M262.919 533.992C324.001 533.333 384.001 533.333 445.026 533.992" stroke="#1A2E35" stroke-width="1.33333" stroke-miterlimit="10" stroke-linecap="round" stroke-linejoin="round"/>
<path d="M146.124 533.992C178.667 533.333 210.667 533.333 242.288 533.992Z" fill="white"/>
<path d="M146.124 533.992C178.667 533.333 210.667 533.333 242.288 533.992" stroke="#1A2E35" stroke-width="1.33333" stroke-miterlimit="10" stroke-linecap="round" stroke-linejoin="round"/>
<path d="M408.151 360.065C402.738 361.326 397.18 361.73 391.667 361.134C391.03 361.06 390.396 360.972 389.762 360.884C382.764 359.822 382.584 352.492 377.367 324.398C375.875 316.365 381.256 305.938 378.14 293.893C377.488 291.352 381.652 272.262 387.362 266.086C405.927 246.01 448.615 249.789 455.819 276.722C466.372 316.192 439.546 352.701 408.151 360.065Z" fill="white"/>
<path d="M408.151 360.065C402.738 361.326 397.18 361.73 391.667 361.134C391.03 361.06 390.396 360.972 389.762 360.884C382.764 359.822 382.584 352.492 377.367 324.398C375.875 316.365 381.256 305.938 378.14 293.893C377.488 291.352 381.652 272.262 387.362 266.086C405.927 246.01 448.615 249.789 455.819 276.722C466.372 316.192 439.546 352.701 408.151 360.065Z" stroke="#1A2E35" stroke-width="1.33333" stroke-miterlimit="10" stroke-linecap="round" stroke-linejoin="round"/>
<path d="M397.82 345.686C397.408 349.966 386.36 358.038 389.756 360.879" stroke="#1A2E35" stroke-width="1.33333" stroke-miterlimit="10" stroke-linecap="round" stroke-linejoin="round"/>
<path d="M408.151 360.065C402.738 361.326 397.18 361.73 391.667 361.134C398.483 358.641 403.31 353.145 403.31 353.145L408.151 360.065Z" fill="#1A2E35"/>
<path d="M205.025 479.663C205.025 479.663 204.323 483.401 205.025 485.4C205.729 487.4 208.191 487.092 208.543 485.4C208.893 483.707 211.356 479.663 211.356 479.663" fill="white"/>
<path d="M205.025 479.663C205.025 479.663 204.323 483.401 205.025 485.4C205.729 487.4 208.191 487.092 208.543 485.4C208.893 483.707 211.356 479.663 211.356 479.663" stroke="#1A2E35" stroke-width="1.33333" stroke-miterlimit="10" stroke-linecap="round" stroke-linejoin="round"/>
<path d="M317.18 484.609C317.18 484.609 255.62 470.444 250.875 470.903C246.13 471.361 224.598 453.764 221.722 453.964C218.847 454.161 208.042 462.436 208.042 462.436L195.631 477.367L192.155 486.051C192.155 486.051 193.935 490.499 199.274 484.193L208.042 479.665C208.042 479.665 223.534 493.901 239.28 491.528C239.28 491.528 305.087 529.317 317.542 528.015C329.998 526.712 372.092 484.193 372.092 484.193L317.18 484.609Z" fill="white"/>
<path d="M317.18 484.609C317.18 484.609 255.62 470.444 250.875 470.903C246.13 471.361 224.598 453.764 221.722 453.964C218.847 454.161 208.042 462.436 208.042 462.436L195.631 477.367L192.155 486.051C192.155 486.051 193.935 490.499 199.274 484.193L208.042 479.665C208.042 479.665 223.534 493.901 239.28 491.528C239.28 491.528 305.087 529.317 317.542 528.015C329.998 526.712 372.092 484.193 372.092 484.193L317.18 484.609Z" stroke="#1A2E35" stroke-width="1.33333" stroke-miterlimit="10" stroke-linecap="round" stroke-linejoin="round"/>
<path d="M402.068 355.862C405.88 358.514 410.45 369.57 406.461 381.817L456.525 377.993C456.525 377.993 443.65 357.471 440.593 339.001C437.533 320.53 414.41 334.074 414.41 334.074" fill="white"/>
<path d="M402.068 355.862C405.88 358.514 410.45 369.57 406.461 381.817L456.525 377.993C456.525 377.993 443.65 357.471 440.593 339.001C437.533 320.53 414.41 334.074 414.41 334.074" stroke="#1A2E35" stroke-width="1.33333" stroke-miterlimit="10" stroke-linecap="round" stroke-linejoin="round"/>
<path d="M467.238 286.8C462.476 258.295 443.216 248.291 423.901 249.045C423.901 249.045 420.776 248.628 416.336 248.04C387.044 244.156 372.86 256.697 370.5 268.519C368.797 277.053 372.48 288.925 389.204 294.496C389.204 294.496 385.12 289.365 386.49 282.767C387.286 284.919 388.324 287.157 389.688 289.46C395.274 298.904 396.268 303.511 396.872 306.953L398.38 308.423C399.105 304.403 401.014 299.035 405.946 302.997C414.821 310.128 410.77 328.013 406.981 333.52C406.981 333.52 415.058 352.748 440.885 348.707C440.885 348.707 472 315.305 467.238 286.8" fill="#1A2E35"/>
<path d="M401.173 310.785C401.173 310.785 398.915 298.506 402.776 299.198C406.639 299.89 409.055 312.765 407.607 320.209C406.157 327.651 402.793 334.667 400.093 332.206C397.396 329.746 401.404 326.217 401.404 326.217" fill="white"/>
<path d="M401.173 310.785C401.173 310.785 398.915 298.506 402.776 299.198C406.639 299.89 409.055 312.765 407.607 320.209C406.157 327.651 402.793 334.667 400.093 332.206C397.396 329.746 401.404 326.217 401.404 326.217" stroke="#1A2E35" stroke-width="1.33333" stroke-miterlimit="10" stroke-linecap="round" stroke-linejoin="round"/>
<path d="M538.654 517.147C511.614 548.6 474.347 570.56 433.334 583.267C424.852 585.894 416.214 588.119 407.466 589.959C405.12 590.452 402.76 590.92 400.4 591.359C395.519 592.267 390.626 593.04 385.707 593.707C383.254 564.227 376.814 533.746 371.654 505.307C370.572 499.32 369.547 493.412 368.614 487.64C368.44 486.494 368.254 485.346 368.079 484.214C366.412 473.334 365.16 462.906 364.64 453.119C363.174 424.679 368.014 401.641 387.374 388.733C391.56 385.934 396.44 383.614 402.067 381.814C402.067 381.814 402.079 381.814 402.094 381.799C402.334 381.587 404.292 379.987 407.48 377.827C415.84 372.2 432.72 362.814 449.56 365.107C450.32 365.214 451.079 365.334 451.84 365.494C454.894 366.107 457.934 367.132 460.906 368.654C460.906 368.654 473.494 370.587 486.774 376.959C495.814 381.307 505.147 387.72 511.067 396.987C520.239 411.346 531.519 473.132 538.654 517.147Z" fill="#23363D"/>
<g opacity="0.300003">
<g opacity="0.300003">
<g opacity="0.300003">
<g opacity="0.699997">
<g opacity="0.699997">
<path opacity="0.699997" d="M416.453 458.921C416.453 458.921 408.626 501.399 393.8 514.239C393.8 514.239 387.733 527.587 376.573 531.761C374.921 522.814 373.226 513.959 371.653 505.307C370.573 499.321 369.546 493.413 368.613 487.641C368.44 486.494 368.254 485.346 368.08 484.214C367.906 483.041 367.72 481.881 367.56 480.721L416.453 458.921Z" fill="black"/>
</g>
</g>
</g>
</g>
</g>
<g opacity="0.300003">
<g opacity="0.300003">
<g opacity="0.300003">
<g opacity="0.699997">
<g opacity="0.699997">
<path opacity="0.699997" d="M538.654 517.147C511.614 548.6 474.347 570.56 433.334 583.267C424.852 585.894 416.214 588.119 407.466 589.959C405.12 590.452 402.76 590.92 400.4 591.359C398.28 591.76 396.16 592.119 394.026 592.466C396.186 568.132 400.48 532.654 407.466 528.054C407.466 528.054 412.934 489.427 418.72 469.746C430.12 431.001 412.947 393.012 447.014 376.867C429.6 378.827 416.667 376.227 416.667 376.227C422.654 371.626 435.814 367.654 448.974 365.041H448.987C449.174 365.054 449.374 365.079 449.56 365.107C450.32 365.214 451.079 365.334 451.84 365.494C454.894 366.107 457.934 367.132 460.906 368.654C460.906 368.654 473.494 370.587 486.774 376.959C495.814 381.307 505.147 387.72 511.067 396.987C520.239 411.346 531.519 473.132 538.654 517.147Z" fill="black"/>
</g>
</g>
</g>
</g>
</g>
<path d="M538.654 517.147C511.614 548.6 474.347 570.56 433.334 583.267C424.852 585.894 416.214 588.119 407.466 589.959C405.12 590.452 402.76 590.92 400.4 591.359C395.519 592.267 390.626 593.04 385.707 593.707C383.254 564.227 376.814 533.746 371.654 505.307C370.572 499.32 369.547 493.412 368.614 487.64C368.44 486.494 368.254 485.346 368.079 484.214C366.412 473.334 365.16 462.906 364.64 453.119C363.174 424.679 368.014 401.641 387.374 388.733C391.56 385.934 396.44 383.614 402.067 381.814C402.067 381.814 402.079 381.814 402.094 381.799C402.334 381.587 404.292 379.987 407.48 377.827C415.84 372.2 432.72 362.814 449.56 365.107C450.32 365.214 451.079 365.334 451.84 365.494C454.894 366.107 457.934 367.132 460.906 368.654C460.906 368.654 473.494 370.587 486.774 376.959C495.814 381.307 505.147 387.72 511.067 396.987C520.239 411.346 531.519 473.132 538.654 517.147Z" stroke="#1A2E35" stroke-width="1.33333" stroke-miterlimit="10" stroke-linecap="round" stroke-linejoin="round"/>
<path d="M387.038 388.346C354.748 396.01 345.01 435.636 329.427 447.476C313.843 459.317 305.302 474.181 305.302 474.181C305.302 474.181 291.443 476.504 291.443 481.545C291.443 486.586 286.822 514.16 314.598 522.013C342.375 529.865 350.448 518.488 350.448 518.488C350.448 518.488 397.79 490.397 406.46 478.753C410.796 472.93 426.366 450.681 414.096 420.373" fill="#9A9A9A"/>
<g opacity="0.300003">
<g opacity="0.300003">
<g opacity="0.300003">
<g opacity="0.699997">
<g opacity="0.699997">
<path opacity="0.699997" d="M341.746 511.693C298.639 518.267 296.214 490.279 297.574 476.267C301.294 474.853 305.306 474.186 305.306 474.186C305.306 474.186 305.733 473.441 306.574 472.161C301.987 494.761 341.746 511.693 341.746 511.693Z" fill="black"/>
</g>
</g>
</g>
</g>
</g>
<path d="M387.038 388.346C354.748 396.01 345.01 435.636 329.427 447.476C313.843 459.317 305.302 474.181 305.302 474.181C305.302 474.181 291.443 476.504 291.443 481.545C291.443 486.586 286.822 514.16 314.598 522.013C342.375 529.865 350.448 518.488 350.448 518.488C350.448 518.488 397.79 490.397 406.46 478.753C410.796 472.93 426.366 450.681 414.096 420.373" stroke="#1A2E35" stroke-width="1.33333" stroke-miterlimit="10" stroke-linecap="round" stroke-linejoin="round"/>
<path d="M207.135 475.443C207.135 475.443 206.433 470.52 207.135 468.585C207.838 466.652 211.179 467.18 211.531 465.069C211.883 462.96 213.641 458.915 215.927 458.915C218.213 458.915 220.146 456.561 220.146 456.561" stroke="#1A2E35" stroke-width="1.33333" stroke-miterlimit="10" stroke-linecap="round" stroke-linejoin="round"/>
<path d="M195.631 477.367C195.631 477.367 203.155 471.997 205.025 470.871" stroke="#1A2E35" stroke-width="1.33333" stroke-miterlimit="10" stroke-linecap="round" stroke-linejoin="round"/>
<path d="M409.333 448.366C409.333 448.366 351.537 462.21 334.027 443.055" stroke="#1A2E35" stroke-width="1.33333" stroke-miterlimit="10" stroke-linecap="round" stroke-linejoin="round"/>
<path d="M305.302 474.181C305.302 474.181 300.146 491.544 313.333 502.132C326.521 512.717 343.399 511.662 343.399 511.662" stroke="#1A2E35" stroke-width="1.33333" stroke-miterlimit="10" stroke-linecap="round" stroke-linejoin="round"/>
<path d="M402.068 381.816C402.068 381.816 439.281 365.479 460.908 368.655" stroke="#1A2E35" stroke-width="1.33333" stroke-miterlimit="10" stroke-linecap="round" stroke-linejoin="round"/>
<path d="M424.63 458.915C424.63 458.915 414.34 484.643 392.321 491.165" stroke="#1A2E35" stroke-width="1.33333" stroke-miterlimit="10" stroke-linecap="round" stroke-linejoin="round"/>
<path d="M382.348 498.212C382.348 498.212 398.257 531.707 434.916 537.51" stroke="#1A2E35" stroke-width="1.33333" stroke-miterlimit="10" stroke-linecap="round" stroke-linejoin="round"/>
<path d="M407.466 589.96C406.893 583.386 406.106 575.293 405.201 567.534V567.52C403.786 555.481 402.094 544.24 400.359 540.68C396.147 531.974 397.013 517.868 397.013 517.868C391.026 509.814 392.321 494.12 392.321 494.12" stroke="#1A2E35" stroke-width="1.33333" stroke-miterlimit="10" stroke-linecap="round" stroke-linejoin="round"/>
<g opacity="0.399994">
<g opacity="0.399994">
<path opacity="0.399994" d="M428.113 294.718C430.808 295.603 433.596 296.398 436.424 296.711" stroke="white" stroke-width="1.33333" stroke-miterlimit="10" stroke-linecap="round" stroke-linejoin="round"/>
</g>
<g opacity="0.399994">
<path opacity="0.399994" d="M399.5 251.217C391.432 254.677 387.757 265.04 392.429 272.185C399.5 282.241 411.063 287.371 422.243 292.525" stroke="white" stroke-width="1.33333" stroke-miterlimit="10" stroke-linecap="round" stroke-linejoin="round"/>
</g>
<g opacity="0.399994">
<path opacity="0.399994" d="M387.237 254.377C375.457 259.929 371.872 271.288 380.757 281.508" stroke="white" stroke-width="1.33333" stroke-miterlimit="10" stroke-linecap="round" stroke-linejoin="round"/>
</g>
<g opacity="0.399994">
<path opacity="0.399994" d="M454.694 294.422C455.959 296.094 457.138 297.889 457.934 299.837" stroke="white" stroke-width="1.33333" stroke-miterlimit="10" stroke-linecap="round" stroke-linejoin="round"/>
</g>
<g opacity="0.399994">
<path opacity="0.399994" d="M426.158 256.247C421.028 273.46 442.806 281.24 451.952 291.149" stroke="white" stroke-width="1.33333" stroke-miterlimit="10" stroke-linecap="round" stroke-linejoin="round"/>
</g>
</g>
<path d="M603.44 362.68C603.2 364.4 602.96 366.106 602.692 367.826C594.773 420.013 573.745 471.201 546.079 507.933C543.707 511.094 541.227 514.16 538.653 517.148C511.613 548.6 474.347 570.56 433.333 583.266C424.853 585.893 416.213 588.12 407.467 589.96C405.12 590.453 402.76 590.921 400.4 591.36C401.8 584.453 403.412 576.4 405.2 567.534V567.52C407.507 556.026 410.079 543.186 412.76 529.8C424.52 470.986 438.307 401.506 440.453 388.346C441 384.974 441.72 381.868 442.68 379.041C444.053 375.013 445.933 371.534 448.587 368.56C449.147 367.946 449.733 367.346 450.359 366.761C450.827 366.333 451.333 365.906 451.84 365.493C461.187 358.053 477.707 354.786 507.653 355.266C559.28 356.08 588.493 346.026 603.107 362.254C603.227 362.386 603.333 362.534 603.44 362.68Z" fill="#0C66FF"/>
<g opacity="0.300003">
<g opacity="0.300003">
<g opacity="0.300003">
<g opacity="0.699997">
<g opacity="0.699997">
<path opacity="0.699997" d="M602.693 367.827C594.774 420.013 573.746 471.2 546.079 507.933C543.707 511.093 541.226 514.16 538.654 517.147C511.613 548.6 474.346 570.56 433.333 583.267C443.774 538.52 471.161 420.692 474.559 400.147C476.786 386.76 480.746 380.187 486.774 376.96C492.214 374.053 499.321 373.88 508.321 373.92C522.173 373.973 570.481 366.427 602.693 367.827Z" fill="#0C66FF"/>
</g>
</g>
</g>
</g>
</g>
<path d="M603.44 362.68C603.2 364.4 602.96 366.106 602.692 367.826C594.773 420.013 573.745 471.201 546.079 507.933C543.707 511.094 541.227 514.16 538.653 517.148C511.613 548.6 474.347 570.56 433.333 583.266C424.853 585.893 416.213 588.12 407.467 589.96C405.12 590.453 402.76 590.921 400.4 591.36C401.8 584.453 403.412 576.4 405.2 567.534V567.52C407.507 556.026 410.079 543.186 412.76 529.8C424.52 470.986 438.307 401.506 440.453 388.346C441 384.974 441.72 381.868 442.68 379.041C444.053 375.013 445.933 371.534 448.587 368.56C449.147 367.946 449.733 367.346 450.359 366.761C450.827 366.333 451.333 365.906 451.84 365.493C461.187 358.053 477.707 354.786 507.653 355.266C559.28 356.08 588.493 346.026 603.107 362.254C603.227 362.386 603.333 362.534 603.44 362.68Z" stroke="#1A2E35" stroke-width="1.33333" stroke-miterlimit="10" stroke-linecap="round" stroke-linejoin="round"/>
<path d="M579.836 367.9C584.709 367.692 589.587 367.589 594.465 367.625" stroke="#1A2E35" stroke-width="1.33333" stroke-miterlimit="10" stroke-linecap="round" stroke-linejoin="round"/>
<path d="M570.704 368.404C572.226 368.302 573.746 368.209 575.268 368.125" stroke="#1A2E35" stroke-width="1.33333" stroke-miterlimit="10" stroke-linecap="round" stroke-linejoin="round"/>
<path d="M450.835 508C457.979 478.016 465.272 448.044 470.845 417.717C472.875 406.677 473.4 393.592 479.796 383.952C487.417 372.463 501.139 374.217 513.196 373.68C530.583 372.905 547.881 370.165 565.231 368.803" stroke="#1A2E35" stroke-width="1.33333" stroke-miterlimit="10" stroke-linecap="round" stroke-linejoin="round"/>
<path d="M448.12 519.555C448.598 517.48 449.084 515.408 449.57 513.335" stroke="#1A2E35" stroke-width="1.33333" stroke-miterlimit="10" stroke-linecap="round" stroke-linejoin="round"/>
<path d="M433.333 583.267C437.261 566.43 441.176 549.588 445.072 532.743" stroke="#1A2E35" stroke-width="1.33333" stroke-miterlimit="10" stroke-linecap="round" stroke-linejoin="round"/>
</g>
<defs>
<clipPath id="clip0_8:5">
<rect width="666.667" height="666.667" fill="white"/>
</clipPath>
</defs>
</svg>
