<svg width="113" height="19" viewBox="0 0 113 19" fill="none" xmlns="http://www.w3.org/2000/svg">
<path d="M11 1.248V3.96H4.016V8.256H9.368V10.92H4.016V18H0.656V1.248H11ZM12.5186 11.304C12.5186 9.96 12.7826 8.768 13.3106 7.728C13.8546 6.688 14.5826 5.888 15.4946 5.328C16.4226 4.768 17.4546 4.488 18.5906 4.488C19.5826 4.488 20.4466 4.688 21.1826 5.088C21.9346 5.488 22.5346 5.992 22.9826 6.6V4.704H26.3666V18H22.9826V16.056C22.5506 16.68 21.9506 17.2 21.1826 17.616C20.4306 18.016 19.5586 18.216 18.5666 18.216C17.4466 18.216 16.4226 17.928 15.4946 17.352C14.5826 16.776 13.8546 15.968 13.3106 14.928C12.7826 13.872 12.5186 12.664 12.5186 11.304ZM22.9826 11.352C22.9826 10.536 22.8226 9.84 22.5026 9.264C22.1826 8.672 21.7506 8.224 21.2066 7.92C20.6626 7.6 20.0786 7.44 19.4546 7.44C18.8306 7.44 18.2546 7.592 17.7266 7.896C17.1986 8.2 16.7666 8.648 16.4306 9.24C16.1106 9.816 15.9506 10.504 15.9506 11.304C15.9506 12.104 16.1106 12.808 16.4306 13.416C16.7666 14.008 17.1986 14.464 17.7266 14.784C18.2706 15.104 18.8466 15.264 19.4546 15.264C20.0786 15.264 20.6626 15.112 21.2066 14.808C21.7506 14.488 22.1826 14.04 22.5026 13.464C22.8226 12.872 22.9826 12.168 22.9826 11.352ZM33.0082 6.768C33.4402 6.064 34.0002 5.512 34.6882 5.112C35.3922 4.712 36.1922 4.512 37.0882 4.512V8.04H36.2002C35.1442 8.04 34.3442 8.288 33.8002 8.784C33.2722 9.28 33.0082 10.144 33.0082 11.376V18H29.6482V4.704H33.0082V6.768ZM51.9033 4.704V18H48.5193V16.32C48.0873 16.896 47.5193 17.352 46.8153 17.688C46.1273 18.008 45.3753 18.168 44.5593 18.168C43.5193 18.168 42.5993 17.952 41.7993 17.52C40.9993 17.072 40.3673 16.424 39.9033 15.576C39.4553 14.712 39.2313 13.688 39.2313 12.504V4.704H42.5913V12.024C42.5913 13.08 42.8553 13.896 43.3833 14.472C43.9113 15.032 44.6313 15.312 45.5433 15.312C46.4713 15.312 47.1993 15.032 47.7273 14.472C48.2553 13.896 48.5193 13.08 48.5193 12.024V4.704H51.9033ZM63.0905 18L58.5785 12.336V18H55.2185V0.24H58.5785V10.344L63.0425 4.704H67.4105L61.5545 11.376L67.4585 18H63.0905Z" fill="#0F2656"/>
<path d="M82.2901 4.608V18H78.1861V16.176C77.7701 16.768 77.2021 17.248 76.4821 17.616C75.7781 17.968 74.9941 18.144 74.1301 18.144C73.1061 18.144 72.2021 17.92 71.4181 17.472C70.6341 17.008 70.0261 16.344 69.5941 15.48C69.1621 14.616 68.9461 13.6 68.9461 12.432V4.608H73.0261V11.88C73.0261 12.776 73.2581 13.472 73.7221 13.968C74.1861 14.464 74.8101 14.712 75.5941 14.712C76.3941 14.712 77.0261 14.464 77.4901 13.968C77.9541 13.472 78.1861 12.776 78.1861 11.88V4.608H82.2901ZM93.158 18L90.59 14.28L88.43 18H83.99L88.406 11.16L83.87 4.608H88.478L91.046 8.304L93.206 4.608H97.646L93.158 11.352L97.766 18H93.158ZM98.5314 11.28C98.5314 9.904 98.7874 8.696 99.2994 7.656C99.8274 6.616 100.539 5.816 101.435 5.256C102.331 4.696 103.331 4.416 104.435 4.416C105.315 4.416 106.115 4.6 106.835 4.968C107.571 5.336 108.147 5.832 108.563 6.456V0.24H112.667V18H108.563V16.08C108.179 16.72 107.627 17.232 106.907 17.616C106.203 18 105.379 18.192 104.435 18.192C103.331 18.192 102.331 17.912 101.435 17.352C100.539 16.776 99.8274 15.968 99.2994 14.928C98.7874 13.872 98.5314 12.656 98.5314 11.28ZM108.563 11.304C108.563 10.28 108.275 9.472 107.699 8.88C107.139 8.288 106.451 7.992 105.635 7.992C104.819 7.992 104.123 8.288 103.547 8.88C102.987 9.456 102.707 10.256 102.707 11.28C102.707 12.304 102.987 13.12 103.547 13.728C104.123 14.32 104.819 14.616 105.635 14.616C106.451 14.616 107.139 14.32 107.699 13.728C108.275 13.136 108.563 12.328 108.563 11.304Z" fill="#0C66FF"/>
</svg>
